<svg xmlns="http://www.w3.org/2000/svg" xmlns:xlink="http://www.w3.org/1999/xlink" width="500" zoomAndPan="magnify" viewBox="0 0 375 374.999991" height="500" preserveAspectRatio="xMidYMid meet" version="1.0"><defs><g/><clipPath id="869084d3db"><path d="M 87.796875 94.75 L 287.296875 94.75 L 287.296875 259 L 87.796875 259 Z M 87.796875 94.75 " clip-rule="nonzero"/></clipPath></defs><path fill="#010101" d="M 170.292969 185.773438 L 170.292969 189.289062 L 178.140625 189.289062 L 178.140625 197.316406 L 173.628906 197.316406 L 173.628906 199.917969 L 178.140625 199.917969 L 178.140625 204.085938 L 180.738281 204.085938 L 180.738281 199.917969 L 201.375 199.917969 L 201.375 209.335938 L 204.28125 209.335938 L 204.28125 199.917969 L 208.136719 199.917969 L 208.136719 197.316406 L 204.28125 197.316406 L 204.28125 189.289062 L 204.800781 189.289062 L 204.800781 185.773438 L 204.28125 185.773438 L 204.28125 177.570312 L 208.136719 177.570312 L 208.136719 174.054688 L 204.28125 174.054688 L 204.28125 170.84375 L 201.375 170.84375 L 201.375 174.054688 L 180.738281 174.054688 L 180.738281 169.5 L 178.140625 169.5 L 178.140625 174.054688 L 173.628906 174.054688 L 173.628906 177.570312 L 178.140625 177.570312 L 178.140625 185.773438 Z M 201.417969 197.316406 L 180.785156 197.316406 L 180.785156 189.289062 L 201.417969 189.289062 Z M 180.785156 177.570312 L 201.417969 177.570312 L 201.417969 185.773438 L 180.785156 185.773438 Z M 180.785156 177.570312 " fill-opacity="1" fill-rule="evenodd"/><g clip-path="url(#869084d3db)"><path fill="#010101" d="M 287.296875 226.390625 L 274.335938 226.390625 L 274.335938 224.785156 L 272.730469 224.785156 L 272.730469 94.816406 L 271.691406 94.816406 L 271.691406 207.554688 L 240.824219 176.917969 L 240.433594 144.808594 L 236.835938 144.851562 L 237.183594 173.316406 L 231.546875 167.71875 L 231.589844 127.535156 L 227.992188 127.535156 L 227.949219 164.117188 L 198.125 134.523438 L 205.363281 127.363281 L 251.445312 127.363281 L 251.445312 126.320312 L 206.402344 126.320312 L 230.332031 102.625 L 229.597656 101.890625 L 204.929688 126.320312 L 192.574219 126.320312 L 202.761719 116.253906 L 202.023438 115.515625 L 191.101562 126.320312 L 120.871094 126.320312 L 120.871094 124.757812 L 119.3125 124.757812 L 119.3125 111.046875 L 118.273438 111.046875 L 118.273438 124.757812 L 116.667969 124.757812 L 116.667969 126.320312 L 103.664062 126.320312 L 103.664062 127.363281 L 116.625 127.363281 L 116.625 128.96875 L 118.226562 128.96875 L 118.226562 198.445312 L 87.796875 228.558594 L 88.535156 229.296875 L 118.183594 199.960938 L 118.183594 212.285156 L 111.421875 218.96875 L 112.160156 219.707031 L 118.183594 213.761719 L 118.183594 258.9375 L 119.226562 258.9375 L 119.226562 212.71875 L 119.703125 212.242188 L 121.566406 214.152344 L 189.539062 147.324219 L 227.863281 183.863281 L 227.820312 226.347656 L 139.515625 226.347656 L 139.515625 227.433594 L 270.085938 227.433594 L 270.085938 228.992188 L 271.648438 228.992188 L 271.648438 242.75 L 272.6875 242.75 L 272.6875 228.992188 L 274.292969 228.992188 L 274.292969 227.433594 L 287.253906 227.433594 L 287.253906 226.390625 Z M 237.226562 178.4375 L 237.355469 187.941406 L 231.503906 182.386719 L 231.503906 172.796875 Z M 203.847656 127.363281 L 197.386719 133.785156 L 191.230469 127.664062 L 191.535156 127.363281 Z M 117.316406 125.496094 L 120.09375 125.496094 L 120.09375 128.273438 L 117.316406 128.273438 Z M 119.226562 129.011719 L 120.785156 129.011719 L 120.785156 127.363281 L 189.929688 127.363281 L 119.226562 197.402344 Z M 119.226562 198.921875 L 125.988281 192.238281 L 128.503906 194.753906 L 191.015625 132.570312 L 194.785156 136.34375 L 119.226562 211.246094 Z M 189.929688 142.679688 L 195.566406 137.082031 L 227.90625 169.195312 L 227.90625 178.914062 Z M 231.503906 187.335938 L 237.398438 192.976562 L 237.789062 226.390625 L 231.417969 226.390625 Z M 241.386719 226.390625 L 241.042969 196.449219 L 244.550781 199.789062 L 247.023438 197.183594 L 240.996094 191.414062 L 240.867188 182.082031 L 270 211.027344 L 271.648438 209.335938 L 271.648438 224.785156 L 270.085938 224.785156 L 270.085938 226.390625 Z M 273.597656 228.257812 L 270.824219 228.257812 L 270.824219 225.480469 L 273.597656 225.480469 Z M 273.597656 228.257812 " fill-opacity="1" fill-rule="evenodd"/></g><g fill="#242424" fill-opacity="1"><g transform="translate(30.379826, 275.770991)"><g><path d="M 5.140625 0 L 5.140625 -11.8125 L 0.703125 -11.8125 L 0.703125 -12.890625 L 10.6875 -12.890625 L 10.6875 -11.8125 L 6.234375 -11.8125 L 6.234375 0 Z M 5.140625 0 "/></g></g></g><g fill="#242424" fill-opacity="1"><g transform="translate(49.566847, 275.770991)"><g><path d="M 10.75 0 L 10.75 -6.03125 L 3.203125 -6.03125 L 3.203125 0 L 2.078125 0 L 2.078125 -12.890625 L 3.203125 -12.890625 L 3.203125 -7.109375 L 10.75 -7.109375 L 10.75 -12.890625 L 11.875 -12.890625 L 11.875 0 Z M 10.75 0 "/></g></g></g><g fill="#242424" fill-opacity="1"><g transform="translate(71.310407, 275.770991)"><g><path d="M 2.078125 0 L 2.078125 -12.890625 L 3.203125 -12.890625 L 3.203125 0 Z M 2.078125 0 "/></g></g></g><g fill="#242424" fill-opacity="1"><g transform="translate(84.391179, 275.770991)"><g><path d="M 2.078125 0 L 2.078125 -12.890625 L 3.125 -12.890625 L 10.96875 -1.9375 L 10.96875 -12.890625 L 12.078125 -12.890625 L 12.078125 0 L 11.03125 0 L 3.1875 -10.96875 L 3.1875 0 Z M 2.078125 0 "/></g></g></g><g fill="#242424" fill-opacity="1"><g transform="translate(106.337052, 275.770991)"><g><path d="M 2.078125 0 L 2.078125 -12.890625 L 3.203125 -12.890625 L 3.203125 -7.09375 L 5.25 -7.09375 C 6.25 -7.09375 7 -7.269531 7.5 -7.625 C 8 -7.976562 8.394531 -8.535156 8.6875 -9.296875 L 10.046875 -12.890625 L 11.234375 -12.890625 L 9.6875 -8.859375 C 9.488281 -8.328125 9.25 -7.875 8.96875 -7.5 C 8.6875 -7.132812 8.335938 -6.835938 7.921875 -6.609375 L 11.765625 0 L 10.46875 0 L 6.890625 -6.203125 C 6.429688 -6.078125 5.882812 -6.015625 5.25 -6.015625 L 3.203125 -6.015625 L 3.203125 0 Z M 2.078125 0 "/></g></g></g><g fill="#242424" fill-opacity="1"><g transform="translate(126.682787, 275.770991)"><g><path d="M 2.078125 0 L 2.078125 -12.890625 L 6.140625 -12.890625 C 7.515625 -12.890625 8.703125 -12.617188 9.703125 -12.078125 C 10.703125 -11.546875 11.472656 -10.796875 12.015625 -9.828125 C 12.566406 -8.867188 12.84375 -7.738281 12.84375 -6.4375 C 12.84375 -5.15625 12.566406 -4.023438 12.015625 -3.046875 C 11.472656 -2.078125 10.703125 -1.328125 9.703125 -0.796875 C 8.703125 -0.265625 7.515625 0 6.140625 0 Z M 3.203125 -1.0625 L 6.140625 -1.0625 C 7.285156 -1.0625 8.273438 -1.28125 9.109375 -1.71875 C 9.941406 -2.164062 10.582031 -2.789062 11.03125 -3.59375 C 11.476562 -4.394531 11.703125 -5.34375 11.703125 -6.4375 C 11.703125 -7.53125 11.472656 -8.476562 11.015625 -9.28125 C 10.566406 -10.082031 9.925781 -10.703125 9.09375 -11.140625 C 8.257812 -11.585938 7.265625 -11.8125 6.109375 -11.8125 L 3.203125 -11.8125 Z M 3.203125 -1.0625 "/></g></g></g><g fill="#242424" fill-opacity="1"><g transform="translate(148.499912, 275.770991)"><g><path d="M 2.078125 0 L 2.078125 -12.890625 L 9.65625 -12.890625 L 9.65625 -11.828125 L 3.203125 -11.828125 L 3.203125 -7.09375 L 9.1875 -7.09375 L 9.1875 -6.0625 L 3.203125 -6.0625 L 3.203125 -1.046875 L 9.859375 -1.046875 L 9.859375 0 Z M 2.078125 0 "/></g></g></g><g fill="#242424" fill-opacity="1"><g transform="translate(167.503014, 275.770991)"><g><path d="M 6.21875 0.234375 C 5.238281 0.234375 4.382812 0.0703125 3.65625 -0.25 C 2.925781 -0.582031 2.359375 -1.054688 1.953125 -1.671875 C 1.546875 -2.285156 1.320312 -3.003906 1.28125 -3.828125 L 2.390625 -3.828125 C 2.453125 -2.878906 2.828125 -2.140625 3.515625 -1.609375 C 4.203125 -1.085938 5.101562 -0.828125 6.21875 -0.828125 C 7.269531 -0.828125 8.101562 -1.046875 8.71875 -1.484375 C 9.332031 -1.921875 9.640625 -2.515625 9.640625 -3.265625 C 9.640625 -3.929688 9.359375 -4.476562 8.796875 -4.90625 C 8.234375 -5.332031 7.300781 -5.6875 6 -5.96875 C 4.414062 -6.332031 3.265625 -6.800781 2.546875 -7.375 C 1.835938 -7.957031 1.484375 -8.734375 1.484375 -9.703125 C 1.484375 -10.734375 1.875 -11.5625 2.65625 -12.1875 C 3.445312 -12.8125 4.53125 -13.125 5.90625 -13.125 C 7.332031 -13.125 8.453125 -12.78125 9.265625 -12.09375 C 10.078125 -11.40625 10.507812 -10.441406 10.5625 -9.203125 L 9.453125 -9.203125 C 9.410156 -10.109375 9.078125 -10.8125 8.453125 -11.3125 C 7.835938 -11.8125 6.988281 -12.0625 5.90625 -12.0625 C 4.863281 -12.0625 4.050781 -11.84375 3.46875 -11.40625 C 2.894531 -10.976562 2.609375 -10.410156 2.609375 -9.703125 C 2.609375 -9.066406 2.878906 -8.535156 3.421875 -8.109375 C 3.972656 -7.679688 4.925781 -7.316406 6.28125 -7.015625 C 7.90625 -6.628906 9.0625 -6.140625 9.75 -5.546875 C 10.4375 -4.953125 10.78125 -4.195312 10.78125 -3.28125 C 10.78125 -2.195312 10.367188 -1.335938 9.546875 -0.703125 C 8.722656 -0.078125 7.613281 0.234375 6.21875 0.234375 Z M 6.21875 0.234375 "/></g></g></g><g fill="#242424" fill-opacity="1"><g transform="translate(187.388942, 275.770991)"><g><path d="M 2.078125 0 L 2.078125 -12.890625 L 3.203125 -12.890625 L 3.203125 0 Z M 2.078125 0 "/></g></g></g><g fill="#242424" fill-opacity="1"><g transform="translate(200.469715, 275.770991)"><g><path d="M 7.6875 0.234375 C 6.425781 0.234375 5.304688 -0.046875 4.328125 -0.609375 C 3.347656 -1.179688 2.578125 -1.96875 2.015625 -2.96875 C 1.453125 -3.976562 1.171875 -5.132812 1.171875 -6.4375 C 1.171875 -7.738281 1.453125 -8.890625 2.015625 -9.890625 C 2.578125 -10.898438 3.34375 -11.691406 4.3125 -12.265625 C 5.289062 -12.835938 6.40625 -13.125 7.65625 -13.125 C 8.644531 -13.125 9.550781 -12.945312 10.375 -12.59375 C 11.207031 -12.238281 11.921875 -11.742188 12.515625 -11.109375 C 13.109375 -10.472656 13.535156 -9.738281 13.796875 -8.90625 L 12.59375 -8.90625 C 12.1875 -9.863281 11.554688 -10.617188 10.703125 -11.171875 C 9.859375 -11.722656 8.863281 -12 7.71875 -12 C 6.644531 -12 5.703125 -11.765625 4.890625 -11.296875 C 4.085938 -10.835938 3.457031 -10.1875 3 -9.34375 C 2.539062 -8.507812 2.3125 -7.539062 2.3125 -6.4375 C 2.3125 -5.34375 2.539062 -4.375 3 -3.53125 C 3.457031 -2.695312 4.09375 -2.046875 4.90625 -1.578125 C 5.71875 -1.117188 6.65625 -0.890625 7.71875 -0.890625 C 8.71875 -0.890625 9.597656 -1.09375 10.359375 -1.5 C 11.117188 -1.90625 11.726562 -2.472656 12.1875 -3.203125 C 12.65625 -3.941406 12.925781 -4.773438 13 -5.703125 L 7.28125 -5.703125 L 7.28125 -6.78125 L 14.1875 -6.78125 C 14.195312 -5.414062 13.929688 -4.203125 13.390625 -3.140625 C 12.859375 -2.085938 12.101562 -1.257812 11.125 -0.65625 C 10.144531 -0.0625 9 0.234375 7.6875 0.234375 Z M 7.6875 0.234375 "/></g></g></g><g fill="#242424" fill-opacity="1"><g transform="translate(223.574312, 275.770991)"><g><path d="M 2.078125 0 L 2.078125 -12.890625 L 3.125 -12.890625 L 10.96875 -1.9375 L 10.96875 -12.890625 L 12.078125 -12.890625 L 12.078125 0 L 11.03125 0 L 3.1875 -10.96875 L 3.1875 0 Z M 2.078125 0 "/></g></g></g><g fill="#242424" fill-opacity="1"><g transform="translate(245.520195, 275.770991)"><g><path d="M 2.234375 0.109375 C 1.929688 0.109375 1.691406 0.0195312 1.515625 -0.15625 C 1.335938 -0.34375 1.25 -0.570312 1.25 -0.84375 C 1.25 -1.125 1.335938 -1.351562 1.515625 -1.53125 C 1.691406 -1.707031 1.929688 -1.796875 2.234375 -1.796875 C 2.523438 -1.796875 2.757812 -1.707031 2.9375 -1.53125 C 3.113281 -1.351562 3.203125 -1.125 3.203125 -0.84375 C 3.203125 -0.570312 3.113281 -0.34375 2.9375 -0.15625 C 2.757812 0.0195312 2.523438 0.109375 2.234375 0.109375 Z M 2.234375 0.109375 "/></g></g></g><g fill="#242424" fill-opacity="1"><g transform="translate(257.773303, 275.770991)"><g><path d="M 2.078125 0 L 2.078125 -12.890625 L 6.96875 -12.890625 C 8.164062 -12.890625 9.113281 -12.582031 9.8125 -11.96875 C 10.519531 -11.363281 10.875 -10.550781 10.875 -9.53125 C 10.875 -8.832031 10.695312 -8.226562 10.34375 -7.71875 C 10 -7.21875 9.515625 -6.859375 8.890625 -6.640625 C 9.640625 -6.421875 10.21875 -6.039062 10.625 -5.5 C 11.039062 -4.957031 11.25 -4.296875 11.25 -3.515625 C 11.25 -2.429688 10.882812 -1.570312 10.15625 -0.9375 C 9.425781 -0.3125 8.429688 0 7.171875 0 Z M 3.203125 -1.046875 L 7.140625 -1.046875 C 8.078125 -1.046875 8.804688 -1.265625 9.328125 -1.703125 C 9.847656 -2.148438 10.109375 -2.765625 10.109375 -3.546875 C 10.109375 -4.347656 9.84375 -4.96875 9.3125 -5.40625 C 8.78125 -5.84375 8.039062 -6.0625 7.09375 -6.0625 L 3.203125 -6.0625 Z M 3.203125 -7.09375 L 6.9375 -7.09375 C 7.820312 -7.09375 8.507812 -7.300781 9 -7.71875 C 9.488281 -8.132812 9.734375 -8.710938 9.734375 -9.453125 C 9.734375 -10.191406 9.488281 -10.769531 9 -11.1875 C 8.507812 -11.613281 7.828125 -11.828125 6.953125 -11.828125 L 3.203125 -11.828125 Z M 3.203125 -7.09375 "/></g></g></g><g fill="#242424" fill-opacity="1"><g transform="translate(278.008675, 275.770991)"><g><path d="M 6.78125 0.21875 C 5.269531 0.21875 4.082031 -0.25 3.21875 -1.1875 C 2.351562 -2.125 1.921875 -3.421875 1.921875 -5.078125 L 1.921875 -12.890625 L 3.015625 -12.890625 L 3.015625 -5.140625 C 3.015625 -3.765625 3.34375 -2.707031 4 -1.96875 C 4.65625 -1.226562 5.582031 -0.859375 6.78125 -0.859375 C 7.976562 -0.859375 8.898438 -1.226562 9.546875 -1.96875 C 10.203125 -2.707031 10.53125 -3.765625 10.53125 -5.140625 L 10.53125 -12.890625 L 11.625 -12.890625 L 11.625 -5.078125 C 11.625 -3.421875 11.191406 -2.125 10.328125 -1.1875 C 9.460938 -0.25 8.28125 0.21875 6.78125 0.21875 Z M 6.78125 0.21875 "/></g></g></g><g fill="#242424" fill-opacity="1"><g transform="translate(299.347599, 275.770991)"><g><path d="M 2.078125 0 L 2.078125 -12.890625 L 3.203125 -12.890625 L 3.203125 0 Z M 2.078125 0 "/></g></g></g><g fill="#242424" fill-opacity="1"><g transform="translate(312.428372, 275.770991)"><g><path d="M 2.078125 0 L 2.078125 -12.890625 L 3.203125 -12.890625 L 3.203125 -1.0625 L 9.734375 -1.0625 L 9.734375 0 Z M 2.078125 0 "/></g></g></g><g fill="#242424" fill-opacity="1"><g transform="translate(330.585415, 275.770991)"><g><path d="M 2.078125 0 L 2.078125 -12.890625 L 6.140625 -12.890625 C 7.515625 -12.890625 8.703125 -12.617188 9.703125 -12.078125 C 10.703125 -11.546875 11.472656 -10.796875 12.015625 -9.828125 C 12.566406 -8.867188 12.84375 -7.738281 12.84375 -6.4375 C 12.84375 -5.15625 12.566406 -4.023438 12.015625 -3.046875 C 11.472656 -2.078125 10.703125 -1.328125 9.703125 -0.796875 C 8.703125 -0.265625 7.515625 0 6.140625 0 Z M 3.203125 -1.0625 L 6.140625 -1.0625 C 7.285156 -1.0625 8.273438 -1.28125 9.109375 -1.71875 C 9.941406 -2.164062 10.582031 -2.789062 11.03125 -3.59375 C 11.476562 -4.394531 11.703125 -5.34375 11.703125 -6.4375 C 11.703125 -7.53125 11.472656 -8.476562 11.015625 -9.28125 C 10.566406 -10.082031 9.925781 -10.703125 9.09375 -11.140625 C 8.257812 -11.585938 7.265625 -11.8125 6.109375 -11.8125 L 3.203125 -11.8125 Z M 3.203125 -1.0625 "/></g></g></g></svg>