<svg xmlns="http://www.w3.org/2000/svg" xmlns:xlink="http://www.w3.org/1999/xlink" width="500" zoomAndPan="magnify" viewBox="0 0 375 374.999991" height="500" preserveAspectRatio="xMidYMid meet" version="1.0"><defs><g/><clipPath id="fda77b905f"><path d="M 71.535156 79.625 L 303.285156 79.625 L 303.285156 270.125 L 71.535156 270.125 Z M 71.535156 79.625 " clip-rule="nonzero"/></clipPath></defs><path fill="#ffffff" d="M 167.4375 185.332031 L 167.4375 189.414062 L 176.5625 189.414062 L 176.5625 198.738281 L 171.320312 198.738281 L 171.320312 201.761719 L 176.5625 201.761719 L 176.5625 206.601562 L 179.585938 206.601562 L 179.585938 201.761719 L 203.574219 201.761719 L 203.574219 212.699219 L 206.949219 212.699219 L 206.949219 201.761719 L 211.4375 201.761719 L 211.4375 198.738281 L 206.949219 198.738281 L 206.949219 189.414062 L 207.554688 189.414062 L 207.554688 185.332031 L 206.949219 185.332031 L 206.949219 175.808594 L 211.4375 175.808594 L 211.4375 171.726562 L 206.949219 171.726562 L 206.949219 167.996094 L 203.574219 167.996094 L 203.574219 171.726562 L 179.585938 171.726562 L 179.585938 166.433594 L 176.5625 166.433594 L 176.5625 171.726562 L 171.320312 171.726562 L 171.320312 175.808594 L 176.5625 175.808594 L 176.5625 185.332031 Z M 203.625 198.738281 L 179.636719 198.738281 L 179.636719 189.414062 L 203.625 189.414062 Z M 179.636719 175.808594 L 203.625 175.808594 L 203.625 185.332031 L 179.636719 185.332031 Z M 179.636719 175.808594 " fill-opacity="1" fill-rule="evenodd"/><g clip-path="url(#fda77b905f)"><path fill="#ffffff" d="M 303.460938 232.503906 L 288.390625 232.503906 L 288.390625 230.640625 L 286.527344 230.640625 L 286.527344 79.703125 L 285.316406 79.703125 L 285.316406 210.632812 L 249.433594 175.054688 L 248.980469 137.757812 L 244.796875 137.808594 L 245.203125 170.871094 L 238.648438 164.367188 L 238.699219 117.703125 L 234.515625 117.703125 L 234.46875 160.1875 L 199.792969 125.816406 L 208.210938 117.5 L 261.78125 117.5 L 261.78125 116.289062 L 209.417969 116.289062 L 237.238281 88.773438 L 236.382812 87.917969 L 207.707031 116.289062 L 193.34375 116.289062 L 205.1875 104.597656 L 204.328125 103.742188 L 191.628906 116.289062 L 109.988281 116.289062 L 109.988281 114.476562 L 108.171875 114.476562 L 108.171875 98.550781 L 106.964844 98.550781 L 106.964844 114.476562 L 105.097656 114.476562 L 105.097656 116.289062 L 89.980469 116.289062 L 89.980469 117.5 L 105.046875 117.5 L 105.046875 119.363281 L 106.914062 119.363281 L 106.914062 200.050781 L 71.535156 235.023438 L 72.390625 235.882812 L 106.863281 201.8125 L 106.863281 216.125 L 99 223.886719 L 99.855469 224.742188 L 106.863281 217.839844 L 106.863281 270.300781 L 108.070312 270.300781 L 108.070312 216.628906 L 108.625 216.074219 L 110.792969 218.292969 L 189.816406 140.683594 L 234.367188 183.117188 L 234.316406 232.453125 L 131.65625 232.453125 L 131.65625 233.714844 L 283.453125 233.714844 L 283.453125 235.527344 L 285.265625 235.527344 L 285.265625 251.503906 L 286.476562 251.503906 L 286.476562 235.527344 L 288.339844 235.527344 L 288.339844 233.714844 L 303.410156 233.714844 L 303.410156 232.503906 Z M 245.25 176.816406 L 245.402344 187.851562 L 238.597656 181.402344 L 238.597656 170.265625 Z M 206.445312 117.5 L 198.9375 124.957031 L 191.78125 117.851562 L 192.132812 117.5 Z M 105.855469 115.332031 L 109.078125 115.332031 L 109.078125 118.558594 L 105.855469 118.558594 Z M 108.070312 119.414062 L 109.886719 119.414062 L 109.886719 117.5 L 190.269531 117.5 L 108.070312 198.839844 Z M 108.070312 200.605469 L 115.933594 192.84375 L 118.855469 195.765625 L 191.527344 123.546875 L 195.914062 127.933594 L 108.070312 214.917969 Z M 190.269531 135.289062 L 196.820312 128.789062 L 234.417969 166.082031 L 234.417969 177.371094 Z M 238.597656 187.148438 L 245.453125 193.699219 L 245.90625 232.503906 L 238.5 232.503906 Z M 250.089844 232.503906 L 249.6875 197.730469 L 253.769531 201.613281 L 256.640625 198.589844 L 249.636719 191.886719 L 249.484375 181.050781 L 283.351562 214.664062 L 285.265625 212.699219 L 285.265625 230.640625 L 283.453125 230.640625 L 283.453125 232.503906 Z M 287.535156 234.671875 L 284.308594 234.671875 L 284.308594 231.445312 L 287.535156 231.445312 Z M 287.535156 234.671875 " fill-opacity="1" fill-rule="evenodd"/></g><g fill="#ffffff" fill-opacity="1"><g transform="translate(4.753091, 290.168248)"><g><path d="M 5.96875 0 L 5.96875 -13.75 L 0.8125 -13.75 L 0.8125 -14.984375 L 12.4375 -14.984375 L 12.4375 -13.75 L 7.25 -13.75 L 7.25 0 Z M 5.96875 0 "/></g></g></g><g fill="#ffffff" fill-opacity="1"><g transform="translate(27.069567, 290.168248)"><g><path d="M 12.5 0 L 12.5 -7.015625 L 3.71875 -7.015625 L 3.71875 0 L 2.421875 0 L 2.421875 -14.984375 L 3.71875 -14.984375 L 3.71875 -8.265625 L 12.5 -8.265625 L 12.5 -14.984375 L 13.8125 -14.984375 L 13.8125 0 Z M 12.5 0 "/></g></g></g><g fill="#ffffff" fill-opacity="1"><g transform="translate(52.35956, 290.168248)"><g><path d="M 2.421875 0 L 2.421875 -14.984375 L 3.71875 -14.984375 L 3.71875 0 Z M 2.421875 0 "/></g></g></g><g fill="#ffffff" fill-opacity="1"><g transform="translate(67.573841, 290.168248)"><g><path d="M 2.421875 0 L 2.421875 -14.984375 L 3.640625 -14.984375 L 12.765625 -2.25 L 12.765625 -14.984375 L 14.046875 -14.984375 L 14.046875 0 L 12.828125 0 L 3.703125 -12.765625 L 3.703125 0 Z M 2.421875 0 "/></g></g></g><g fill="#ffffff" fill-opacity="1"><g transform="translate(93.099146, 290.168248)"><g><path d="M 2.421875 0 L 2.421875 -14.984375 L 3.71875 -14.984375 L 3.71875 -8.234375 L 6.09375 -8.234375 C 7.269531 -8.234375 8.144531 -8.441406 8.71875 -8.859375 C 9.300781 -9.273438 9.765625 -9.925781 10.109375 -10.8125 L 11.6875 -14.984375 L 13.0625 -14.984375 L 11.265625 -10.296875 C 11.035156 -9.679688 10.753906 -9.160156 10.421875 -8.734375 C 10.097656 -8.304688 9.691406 -7.957031 9.203125 -7.6875 L 13.671875 0 L 12.1875 0 L 8 -7.21875 C 7.476562 -7.070312 6.84375 -7 6.09375 -7 L 3.71875 -7 L 3.71875 0 Z M 2.421875 0 "/></g></g></g><g fill="#ffffff" fill-opacity="1"><g transform="translate(116.763325, 290.168248)"><g><path d="M 2.421875 0 L 2.421875 -14.984375 L 7.15625 -14.984375 C 8.75 -14.984375 10.125 -14.671875 11.28125 -14.046875 C 12.445312 -13.429688 13.347656 -12.5625 13.984375 -11.4375 C 14.617188 -10.320312 14.9375 -9.003906 14.9375 -7.484375 C 14.9375 -5.992188 14.617188 -4.679688 13.984375 -3.546875 C 13.347656 -2.421875 12.445312 -1.546875 11.28125 -0.921875 C 10.125 -0.304688 8.75 0 7.15625 0 Z M 3.71875 -1.234375 L 7.15625 -1.234375 C 8.476562 -1.234375 9.625 -1.488281 10.59375 -2 C 11.5625 -2.519531 12.304688 -3.25 12.828125 -4.1875 C 13.347656 -5.125 13.609375 -6.222656 13.609375 -7.484375 C 13.609375 -8.753906 13.34375 -9.859375 12.8125 -10.796875 C 12.289062 -11.734375 11.546875 -12.457031 10.578125 -12.96875 C 9.609375 -13.488281 8.453125 -13.75 7.109375 -13.75 L 3.71875 -13.75 Z M 3.71875 -1.234375 "/></g></g></g><g fill="#ffffff" fill-opacity="1"><g transform="translate(142.138882, 290.168248)"><g><path d="M 2.421875 0 L 2.421875 -14.984375 L 11.234375 -14.984375 L 11.234375 -13.765625 L 3.71875 -13.765625 L 3.71875 -8.234375 L 10.6875 -8.234375 L 10.6875 -7.046875 L 3.71875 -7.046875 L 3.71875 -1.21875 L 11.46875 -1.21875 L 11.46875 0 Z M 2.421875 0 "/></g></g></g><g fill="#ffffff" fill-opacity="1"><g transform="translate(164.241442, 290.168248)"><g><path d="M 7.234375 0.28125 C 6.085938 0.28125 5.085938 0.0859375 4.234375 -0.296875 C 3.390625 -0.679688 2.734375 -1.226562 2.265625 -1.9375 C 1.796875 -2.65625 1.539062 -3.492188 1.5 -4.453125 L 2.78125 -4.453125 C 2.851562 -3.347656 3.285156 -2.488281 4.078125 -1.875 C 4.878906 -1.269531 5.929688 -0.96875 7.234375 -0.96875 C 8.460938 -0.96875 9.429688 -1.21875 10.140625 -1.71875 C 10.859375 -2.226562 11.21875 -2.914062 11.21875 -3.78125 C 11.21875 -4.570312 10.890625 -5.210938 10.234375 -5.703125 C 9.578125 -6.191406 8.492188 -6.601562 6.984375 -6.9375 C 5.140625 -7.363281 3.800781 -7.910156 2.96875 -8.578125 C 2.144531 -9.253906 1.734375 -10.15625 1.734375 -11.28125 C 1.734375 -12.476562 2.1875 -13.441406 3.09375 -14.171875 C 4.007812 -14.898438 5.269531 -15.265625 6.875 -15.265625 C 8.53125 -15.265625 9.832031 -14.863281 10.78125 -14.0625 C 11.726562 -13.257812 12.226562 -12.140625 12.28125 -10.703125 L 11 -10.703125 C 10.945312 -11.753906 10.554688 -12.566406 9.828125 -13.140625 C 9.109375 -13.722656 8.125 -14.015625 6.875 -14.015625 C 5.65625 -14.015625 4.710938 -13.765625 4.046875 -13.265625 C 3.378906 -12.765625 3.046875 -12.101562 3.046875 -11.28125 C 3.046875 -10.539062 3.359375 -9.921875 3.984375 -9.421875 C 4.617188 -8.929688 5.722656 -8.507812 7.296875 -8.15625 C 9.191406 -7.707031 10.539062 -7.140625 11.34375 -6.453125 C 12.144531 -5.765625 12.546875 -4.882812 12.546875 -3.8125 C 12.546875 -2.550781 12.066406 -1.550781 11.109375 -0.8125 C 10.148438 -0.0820312 8.859375 0.28125 7.234375 0.28125 Z M 7.234375 0.28125 "/></g></g></g><g fill="#ffffff" fill-opacity="1"><g transform="translate(187.370819, 290.168248)"><g><path d="M 2.421875 0 L 2.421875 -14.984375 L 3.71875 -14.984375 L 3.71875 0 Z M 2.421875 0 "/></g></g></g><g fill="#ffffff" fill-opacity="1"><g transform="translate(202.585101, 290.168248)"><g><path d="M 8.953125 0.28125 C 7.484375 0.28125 6.175781 -0.0507812 5.03125 -0.71875 C 3.882812 -1.382812 2.988281 -2.300781 2.34375 -3.46875 C 1.695312 -4.632812 1.375 -5.972656 1.375 -7.484375 C 1.375 -9.003906 1.695312 -10.347656 2.34375 -11.515625 C 2.988281 -12.679688 3.878906 -13.597656 5.015625 -14.265625 C 6.148438 -14.929688 7.445312 -15.265625 8.90625 -15.265625 C 10.0625 -15.265625 11.117188 -15.054688 12.078125 -14.640625 C 13.046875 -14.222656 13.867188 -13.644531 14.546875 -12.90625 C 15.234375 -12.175781 15.734375 -11.328125 16.046875 -10.359375 L 14.640625 -10.359375 C 14.171875 -11.472656 13.441406 -12.347656 12.453125 -12.984375 C 11.472656 -13.628906 10.3125 -13.953125 8.96875 -13.953125 C 7.726562 -13.953125 6.632812 -13.679688 5.6875 -13.140625 C 4.75 -12.597656 4.015625 -11.84375 3.484375 -10.875 C 2.960938 -9.90625 2.703125 -8.773438 2.703125 -7.484375 C 2.703125 -6.222656 2.960938 -5.101562 3.484375 -4.125 C 4.015625 -3.144531 4.753906 -2.382812 5.703125 -1.84375 C 6.648438 -1.300781 7.738281 -1.03125 8.96875 -1.03125 C 10.132812 -1.03125 11.160156 -1.269531 12.046875 -1.75 C 12.929688 -2.226562 13.640625 -2.890625 14.171875 -3.734375 C 14.710938 -4.585938 15.023438 -5.554688 15.109375 -6.640625 L 8.484375 -6.640625 L 8.484375 -7.875 L 16.5 -7.875 C 16.519531 -6.289062 16.210938 -4.882812 15.578125 -3.65625 C 14.953125 -2.425781 14.070312 -1.460938 12.9375 -0.765625 C 11.800781 -0.0664062 10.472656 0.28125 8.953125 0.28125 Z M 8.953125 0.28125 "/></g></g></g><g fill="#ffffff" fill-opacity="1"><g transform="translate(229.45812, 290.168248)"><g><path d="M 2.421875 0 L 2.421875 -14.984375 L 3.640625 -14.984375 L 12.765625 -2.25 L 12.765625 -14.984375 L 14.046875 -14.984375 L 14.046875 0 L 12.828125 0 L 3.703125 -12.765625 L 3.703125 0 Z M 2.421875 0 "/></g></g></g><g fill="#ffffff" fill-opacity="1"><g transform="translate(254.983436, 290.168248)"><g><path d="M 2.59375 0.125 C 2.25 0.125 1.972656 0.0195312 1.765625 -0.1875 C 1.554688 -0.40625 1.453125 -0.671875 1.453125 -0.984375 C 1.453125 -1.316406 1.554688 -1.582031 1.765625 -1.78125 C 1.972656 -1.988281 2.25 -2.09375 2.59375 -2.09375 C 2.9375 -2.09375 3.207031 -1.988281 3.40625 -1.78125 C 3.613281 -1.582031 3.71875 -1.316406 3.71875 -0.984375 C 3.71875 -0.671875 3.613281 -0.40625 3.40625 -0.1875 C 3.207031 0.0195312 2.9375 0.125 2.59375 0.125 Z M 2.59375 0.125 "/></g></g></g><g fill="#ffffff" fill-opacity="1"><g transform="translate(269.235059, 290.168248)"><g><path d="M 2.421875 0 L 2.421875 -14.984375 L 8.109375 -14.984375 C 9.492188 -14.984375 10.597656 -14.628906 11.421875 -13.921875 C 12.242188 -13.210938 12.65625 -12.269531 12.65625 -11.09375 C 12.65625 -10.28125 12.453125 -9.578125 12.046875 -8.984375 C 11.640625 -8.398438 11.070312 -7.984375 10.34375 -7.734375 C 11.207031 -7.472656 11.878906 -7.023438 12.359375 -6.390625 C 12.835938 -5.765625 13.078125 -5 13.078125 -4.09375 C 13.078125 -2.832031 12.648438 -1.832031 11.796875 -1.09375 C 10.953125 -0.363281 9.800781 0 8.34375 0 Z M 3.71875 -1.21875 L 8.3125 -1.21875 C 9.394531 -1.21875 10.238281 -1.472656 10.84375 -1.984375 C 11.445312 -2.503906 11.75 -3.21875 11.75 -4.125 C 11.75 -5.050781 11.441406 -5.769531 10.828125 -6.28125 C 10.210938 -6.789062 9.347656 -7.046875 8.234375 -7.046875 L 3.71875 -7.046875 Z M 3.71875 -8.234375 L 8.0625 -8.234375 C 9.09375 -8.234375 9.894531 -8.476562 10.46875 -8.96875 C 11.039062 -9.457031 11.328125 -10.132812 11.328125 -11 C 11.328125 -11.851562 11.039062 -12.523438 10.46875 -13.015625 C 9.894531 -13.515625 9.101562 -13.765625 8.09375 -13.765625 L 3.71875 -13.765625 Z M 3.71875 -8.234375 "/></g></g></g><g fill="#ffffff" fill-opacity="1"><g transform="translate(292.770875, 290.168248)"><g><path d="M 7.875 0.25 C 6.125 0.25 4.742188 -0.289062 3.734375 -1.375 C 2.722656 -2.46875 2.21875 -3.976562 2.21875 -5.90625 L 2.21875 -14.984375 L 3.515625 -14.984375 L 3.515625 -5.96875 C 3.515625 -4.375 3.894531 -3.144531 4.65625 -2.28125 C 5.414062 -1.425781 6.488281 -1 7.875 -1 C 9.269531 -1 10.347656 -1.425781 11.109375 -2.28125 C 11.867188 -3.144531 12.25 -4.375 12.25 -5.96875 L 12.25 -14.984375 L 13.53125 -14.984375 L 13.53125 -5.90625 C 13.53125 -3.976562 13.023438 -2.46875 12.015625 -1.375 C 11.015625 -0.289062 9.632812 0.25 7.875 0.25 Z M 7.875 0.25 "/></g></g></g><g fill="#ffffff" fill-opacity="1"><g transform="translate(317.590236, 290.168248)"><g><path d="M 2.421875 0 L 2.421875 -14.984375 L 3.71875 -14.984375 L 3.71875 0 Z M 2.421875 0 "/></g></g></g><g fill="#ffffff" fill-opacity="1"><g transform="translate(332.804518, 290.168248)"><g><path d="M 2.421875 0 L 2.421875 -14.984375 L 3.71875 -14.984375 L 3.71875 -1.234375 L 11.328125 -1.234375 L 11.328125 0 Z M 2.421875 0 "/></g></g></g><g fill="#ffffff" fill-opacity="1"><g transform="translate(353.923024, 290.168248)"><g><path d="M 2.421875 0 L 2.421875 -14.984375 L 7.15625 -14.984375 C 8.75 -14.984375 10.125 -14.671875 11.28125 -14.046875 C 12.445312 -13.429688 13.347656 -12.5625 13.984375 -11.4375 C 14.617188 -10.320312 14.9375 -9.003906 14.9375 -7.484375 C 14.9375 -5.992188 14.617188 -4.679688 13.984375 -3.546875 C 13.347656 -2.421875 12.445312 -1.546875 11.28125 -0.921875 C 10.125 -0.304688 8.75 0 7.15625 0 Z M 3.71875 -1.234375 L 7.15625 -1.234375 C 8.476562 -1.234375 9.625 -1.488281 10.59375 -2 C 11.5625 -2.519531 12.304688 -3.25 12.828125 -4.1875 C 13.347656 -5.125 13.609375 -6.222656 13.609375 -7.484375 C 13.609375 -8.753906 13.34375 -9.859375 12.8125 -10.796875 C 12.289062 -11.734375 11.546875 -12.457031 10.578125 -12.96875 C 9.609375 -13.488281 8.453125 -13.75 7.109375 -13.75 L 3.71875 -13.75 Z M 3.71875 -1.234375 "/></g></g></g></svg>